# xmcd
#
# Track frame offsets: 
#        150
#        19125
#        45075
#        65625
#        84450
#        104550
#        122626
#        142351
#        163801
#        185776
#        201152
#
# Disc length: 3005 seconds
#
# Revision: 0
# Processed by: cddbd v1.5.2PL0 Copyright (c) Steve Scherf et al.
# Submitted via: ExactAudioCopy v1.0b3
#
DISCID=a20bbb0b
DTITLE=Jonas Angerud - A Touch Of Paradise
DYEAR=2010
DGENRE=New Age
TTITLE0=Warm Sunny Beach
TTITLE1=Elements in Harmony
TTITLE2=Brook of Joy
TTITLE3=Solitude Bay
TTITLE4=Drifting
TTITLE5=Nightfall Reflections
TTITLE6=Traveling
TTITLE7=Dreams of a Present Time
TTITLE8=Heaven and Earth
TTITLE9=Heart in the Sand
TTITLE10=Touch of Paradise
EXTD=
EXTT0=
EXTT1=
EXTT2=
EXTT3=
EXTT4=
EXTT5=
EXTT6=
EXTT7=
EXTT8=
EXTT9=
EXTT10=
PLAYORDER=
